<svg xmlns="http://www.w3.org/2000/svg" viewBox="0 0 26.62 26.67"><defs><style>.cls-1{fill:#24b47e;}</style></defs><g id="Calque_2" data-name="Calque 2"><g id="logo-8"><path class="cls-1" d="M20.35,11.7a3.6,3.6,0,0,0-.85,1.35,3.71,3.71,0,0,0-.2,1.58l0,0A4.35,4.35,0,0,1,19,16.47a4.54,4.54,0,0,1-1,1.58,4.35,4.35,0,0,1-3.44,1.26l0,0a3.67,3.67,0,0,0-3.67,2.1,3.69,3.69,0,0,0,.73,4.16,3.68,3.68,0,0,0,6.26-2.95l0,0a4.37,4.37,0,0,1,.25-1.86,4.27,4.27,0,0,1,1-1.58,4.22,4.22,0,0,1,1.58-1A4.16,4.16,0,0,1,22.64,18l0,0a3.68,3.68,0,0,0,1.8-.29,3.63,3.63,0,0,0,1.44-1.13,3.57,3.57,0,0,0,.72-1.67A3.74,3.74,0,0,0,26.4,13a3.65,3.65,0,0,0-2.66-2.33,3.67,3.67,0,0,0-3.39,1Z"/><path class="cls-1" d="M13,17l0,0a3.73,3.73,0,0,0,1.59-.19,3.67,3.67,0,0,0,2.2-2.2A3.7,3.7,0,0,0,16.93,13h0a4.31,4.31,0,0,1,.25-1.85,4.12,4.12,0,0,1,1-1.58,4.24,4.24,0,0,1,1.58-1,4.31,4.31,0,0,1,1.85-.25l0,0a3.65,3.65,0,0,0,2.17-.47A3.68,3.68,0,0,0,24.57,2a3.65,3.65,0,0,0-2-1,3.66,3.66,0,0,0-4.29,4l0,0A4.35,4.35,0,0,1,18,6.8a4.24,4.24,0,0,1-1,1.58,4.35,4.35,0,0,1-3.44,1.26l0,0A3.55,3.55,0,0,0,12,9.85a3.6,3.6,0,0,0-2.2,2.2,3.71,3.71,0,0,0-.2,1.58v0a4.51,4.51,0,0,1-.25,1.86,4.36,4.36,0,0,1-2.59,2.59,4.35,4.35,0,0,1-1.86.25l0,0a3.74,3.74,0,0,0-2.17.46A3.7,3.7,0,0,0,1,22.62a3.68,3.68,0,0,0,6.82,1.19,3.65,3.65,0,0,0,.47-2.17l0,0a4.22,4.22,0,0,1,.25-1.86,4.26,4.26,0,0,1,2.58-2.58A4.22,4.22,0,0,1,13,17Z"/><path class="cls-1" d="M6.27,15a3.6,3.6,0,0,0,.85-1.35A3.52,3.52,0,0,0,7.31,12l0,0a4.54,4.54,0,0,1,.25-1.86,4.4,4.4,0,0,1,1-1.58,4.54,4.54,0,0,1,1.58-1A4.37,4.37,0,0,1,12,7.36l0,0A3.68,3.68,0,1,0,9.16,1.85,3.74,3.74,0,0,0,8.69,4l0,0a4.35,4.35,0,0,1-.24,1.86,4.54,4.54,0,0,1-1,1.58,4.4,4.4,0,0,1-1.58,1A4.54,4.54,0,0,1,4,8.7H4a3.68,3.68,0,0,0-4,3.1,3.77,3.77,0,0,0,.18,1.82,3.71,3.71,0,0,0,1,1.5A3.78,3.78,0,0,0,2.88,16a3.62,3.62,0,0,0,1.82-.07A3.54,3.54,0,0,0,6.27,15Z"/></g></g></svg>